<svg width="208" height="40" viewBox="0 0 208 40" fill="#FFFFFF" xmlns="http://www.w3.org/2000/svg">
<g id="Group 5">
<g id="gr w">
<path d="M10.35 39.9167C8.975 39.9167 7.7 39.7042 6.525 39.2792C5.375 38.8542 4.375 38.2667 3.525 37.5167C3.05012 37.0993 2.63736 36.6406 2.28672 36.1404C1.84968 35.517 2.13607 34.6859 2.80704 34.3261C3.55432 33.9254 4.48175 34.2712 5.03631 34.9127C5.3922 35.3243 5.82593 35.7048 6.3375 36.0542C7.3625 36.7542 8.675 37.1042 10.275 37.1042C11.5 37.1042 12.625 36.8667 13.65 36.3917C14.675 35.9167 15.5 35.2167 16.125 34.2917C16.75 33.3667 17.0625 32.2292 17.0625 30.8792V26.8767C17.0625 26.7006 17.2718 26.6085 17.4016 26.7275C17.4674 26.7879 17.4861 26.8843 17.4459 26.9641C16.7474 28.3491 15.7321 29.4292 14.4 30.2042C13.025 30.9792 11.525 31.3667 9.9 31.3667C8.025 31.3667 6.3375 30.9167 4.8375 30.0167C3.3375 29.1167 2.15 27.9042 1.275 26.3792C0.425 24.8292 0 23.1167 0 21.2417C0 19.3417 0.425 17.6292 1.275 16.1042C2.15 14.5792 3.325 13.3667 4.8 12.4667C6.3 11.5667 8 11.1167 9.9 11.1167C11.525 11.1167 13 11.4917 14.325 12.2417C15.6379 12.9711 16.6789 13.9487 17.448 15.1747C17.4882 15.2389 17.4892 15.32 17.4516 15.3858C17.3456 15.5712 17.0625 15.496 17.0625 15.2824V12.5109C17.0625 11.9894 17.4853 11.5667 18.0068 11.5667H18.4688C19.2454 11.5667 19.875 12.1963 19.875 12.9729V30.8792C19.875 32.6042 19.4625 34.1417 18.6375 35.4917C17.8375 36.8667 16.7125 37.9417 15.2625 38.7167C13.8375 39.5167 12.2 39.9167 10.35 39.9167ZM10.05 28.5542C11.35 28.5542 12.525 28.2292 13.575 27.5792C14.625 26.9042 15.4625 26.0167 16.0875 24.9167C16.7375 23.7917 17.0625 22.5667 17.0625 21.2417C17.0625 19.9167 16.7375 18.7042 16.0875 17.6042C15.4625 16.4792 14.625 15.5917 13.575 14.9417C12.525 14.2667 11.35 13.9292 10.05 13.9292C8.725 13.9292 7.525 14.2667 6.45 14.9417C5.375 15.5917 4.525 16.4667 3.9 17.5667C3.3 18.6667 3 19.8917 3 21.2417C3 22.5667 3.3 23.7917 3.9 24.9167C4.525 26.0167 5.3625 26.9042 6.4125 27.5792C7.4875 28.2292 8.7 28.5542 10.05 28.5542Z" fill="#FFFFFF"/>
<path d="M27.0604 31.6667C26.2837 31.6667 25.6541 31.0371 25.6541 30.2604V12.9729C25.6541 12.1963 26.2837 11.5667 27.0604 11.5667H27.6291C28.0916 11.5667 28.4666 11.9416 28.4666 12.4042V14.3597C28.4666 14.5243 28.2579 14.5953 28.1575 14.4648C28.1172 14.4124 28.1102 14.3415 28.1409 14.283C28.6153 13.3784 29.3114 12.6605 30.2291 12.1292C31.2041 11.5792 32.3791 11.3042 33.7541 11.3042C34.4583 11.3042 35.0291 11.875 35.0291 12.5792V12.7104C35.0291 13.4871 34.3995 14.1167 33.6229 14.1167H33.2666C31.8166 14.1167 30.6541 14.5667 29.7791 15.4667C28.9041 16.3667 28.4666 17.6417 28.4666 19.2917V30.2604C28.4666 31.0371 27.837 31.6667 27.0604 31.6667Z" fill="#FFFFFF"/>
<path d="M75.9895 31.6667C75.1644 31.6667 74.4305 31.1426 74.1626 30.3622L68.3916 13.5512C68.0578 12.5787 68.7804 11.5667 69.8085 11.5667C70.458 11.5667 71.0335 11.9851 71.2337 12.6029L76.4228 28.6142C76.5092 28.8808 76.3105 29.1542 76.0302 29.1542C75.7529 29.1542 75.5545 28.8863 75.6354 28.621L80.4252 12.9118C80.6689 12.1127 81.4062 11.5667 82.2416 11.5667C83.077 11.5667 83.8143 12.1127 84.058 12.9118L88.848 28.6216C88.9287 28.8865 88.7305 29.1542 88.4536 29.1542C88.1732 29.1542 87.9746 28.8805 88.0616 28.614L93.2894 12.5887C93.4883 11.9791 94.0567 11.5667 94.6979 11.5667C95.7147 11.5667 96.4293 12.5675 96.0991 13.5292L90.3207 30.3622C90.0528 31.1426 89.3188 31.6667 88.4937 31.6667C87.6425 31.6667 86.8916 31.1095 86.6449 30.2949L81.962 14.831C81.9052 14.6434 82.0456 14.4542 82.2416 14.4542C82.4376 14.4542 82.578 14.6434 82.5212 14.831L77.8383 30.2949C77.5916 31.1095 76.8407 31.6667 75.9895 31.6667Z" fill="#FFFFFF"/>
</g>
<g id="Group 4">
<g id="d ck">
<path d="M126.411 31.7599C124.536 31.7599 122.848 31.3099 121.348 30.4099C119.848 29.4849 118.661 28.2349 117.786 26.6599C116.936 25.0599 116.511 23.2599 116.511 21.2599C116.511 19.2349 116.936 17.4349 117.786 15.8599C118.661 14.2849 119.836 13.0474 121.311 12.1474C122.811 11.2224 124.511 10.7599 126.411 10.7599C128.136 10.7599 129.673 11.1349 131.023 11.8849C132.336 12.6143 133.377 13.5919 134.146 14.8179C134.186 14.8821 134.187 14.9632 134.15 15.029C134.044 15.2144 133.761 15.1392 133.761 14.9256V4.32861C133.761 3.55196 134.39 2.92236 135.167 2.92236C135.944 2.92236 136.573 3.55196 136.573 4.32861V29.9036C136.573 30.6803 135.944 31.3099 135.167 31.3099H135.135C134.376 31.3099 133.761 30.6944 133.761 29.9351V27.2699C133.761 27.0938 133.97 27.0017 134.1 27.1207C134.166 27.1811 134.184 27.2775 134.144 27.3573C133.445 28.7423 132.417 29.8224 131.061 30.5974C129.686 31.3724 128.136 31.7599 126.411 31.7599ZM126.561 28.9474C127.911 28.9474 129.123 28.6099 130.198 27.9349C131.298 27.2599 132.161 26.3474 132.786 25.1974C133.436 24.0224 133.761 22.7099 133.761 21.2599C133.761 19.8099 133.436 18.5099 132.786 17.3599C132.161 16.1849 131.298 15.2599 130.198 14.5849C129.123 13.9099 127.911 13.5724 126.561 13.5724C125.236 13.5724 124.036 13.9099 122.961 14.5849C121.886 15.2599 121.036 16.1724 120.411 17.3224C119.811 18.4724 119.511 19.7849 119.511 21.2599C119.511 22.7099 119.811 24.0224 120.411 25.1974C121.036 26.3474 121.873 27.2599 122.923 27.9349C123.998 28.6099 125.211 28.9474 126.561 28.9474Z" fill="#FFFFFF"/>
<path d="M177.024 31.7599C175.049 31.7599 173.311 31.2974 171.811 30.3724C170.311 29.4474 169.136 28.1974 168.286 26.6224C167.436 25.0224 167.011 23.2224 167.011 21.2224C167.011 19.2224 167.436 17.4349 168.286 15.8599C169.136 14.2849 170.311 13.0474 171.811 12.1474C173.311 11.2224 175.049 10.7599 177.024 10.7599C178.274 10.7599 179.449 10.9849 180.549 11.4349C181.649 11.8849 182.624 12.4974 183.474 13.2724C183.969 13.7092 184.392 14.1884 184.743 14.71C185.168 15.3427 184.861 16.1674 184.183 16.5164C183.448 16.8948 182.558 16.5693 182.039 15.9257C181.626 15.4145 181.13 14.9675 180.549 14.5849C179.524 13.9099 178.349 13.5724 177.024 13.5724C175.699 13.5724 174.499 13.9099 173.424 14.5849C172.374 15.2349 171.536 16.1474 170.911 17.3224C170.311 18.4724 170.011 19.7849 170.011 21.2599C170.011 22.7099 170.311 24.0224 170.911 25.1974C171.536 26.3474 172.374 27.2599 173.424 27.9349C174.499 28.6099 175.699 28.9474 177.024 28.9474C178.349 28.9474 179.511 28.6099 180.511 27.9349C181.096 27.5499 181.599 27.0917 182.021 26.5603C182.547 25.8983 183.464 25.5762 184.206 25.9802C184.874 26.3436 185.165 27.1679 184.739 27.7973C184.388 28.3144 183.967 28.7977 183.474 29.2474C182.624 30.0224 181.649 30.6349 180.549 31.0849C179.449 31.5349 178.274 31.7599 177.024 31.7599Z" fill="#FFFFFF"/>
<path d="M191.728 31.3099C190.951 31.3099 190.321 30.6803 190.321 29.9036V4.32861C190.321 3.55196 190.951 2.92236 191.728 2.92236C192.504 2.92236 193.134 3.55196 193.134 4.32861V22.3431C193.134 22.5818 192.921 22.7641 192.685 22.7272C192.372 22.6783 192.246 22.2949 192.469 22.0696L202.839 11.5961C203.084 11.3489 203.417 11.2099 203.765 11.2099C204.918 11.2099 205.503 12.5981 204.697 13.4232L201.036 17.1719C199.848 18.3876 199.702 20.2792 200.689 21.6626L206.02 29.1344C206.669 30.0454 206.018 31.3099 204.899 31.3099C204.458 31.3099 204.043 31.0982 203.784 30.7406L196.672 20.9152C196.461 20.6235 196.689 20.2186 197.048 20.2485C197.402 20.278 197.563 20.7059 197.315 20.9612L193.065 25.3502C192.879 25.5427 192.563 25.3377 192.664 25.0891C192.764 24.8402 193.134 24.912 193.134 25.1804V30.1094C193.134 30.7724 192.597 31.3099 191.934 31.3099H191.728Z" fill="#FFFFFF"/>
</g>
<g id="Group 2">
<line id="Line 1" x1="144.031" y1="15.0599" x2="162.198" y2="15.0599" stroke="#FFFFFF" stroke-width="2.5" stroke-linecap="round"/>
<line id="Line 2" x1="144.031" y1="22.1053" x2="162.198" y2="22.1053" stroke="#FFFFFF" stroke-width="2.5" stroke-linecap="round"/>
<line id="Line 3" x1="144.031" y1="29.1508" x2="162.198" y2="29.1508" stroke="#FFFFFF" stroke-width="2.5" stroke-linecap="round"/>
</g>
</g>
<g id="Group 3">
<path id="Star 1" d="M49.0596 6.83019C50.2341 4.19523 53.9742 4.19524 55.1487 6.8302L56.8466 10.6392C57.331 11.726 58.358 12.4721 59.5413 12.597L63.6886 13.0348C66.5575 13.3376 67.7132 16.8946 65.5702 18.8259L62.4723 21.6177C61.5884 22.4142 61.1961 23.6215 61.443 24.7855L62.3083 28.8651C62.9068 31.6872 59.8811 33.8855 57.3821 32.4441L53.7696 30.3606C52.7389 29.7661 51.4694 29.7661 50.4387 30.3606L46.8262 32.4441C44.3272 33.8855 41.3015 31.6871 41.9 28.865L42.7653 24.7855C43.0122 23.6215 42.6199 22.4142 41.736 21.6177L38.6381 18.8259C36.4951 16.8946 37.6508 13.3376 40.5198 13.0348L44.667 12.597C45.8503 12.4721 46.8773 11.726 47.3617 10.6392L49.0596 6.83019Z" fill="#FFB052"/>
<path id="Line 4" d="M48.2542 23.6501C47.9689 23.9354 47.9689 24.398 48.2542 24.6833C48.5395 24.9686 49.0021 24.9686 49.2874 24.6833L48.2542 23.6501ZM56.1681 17.5C56.1681 17.0965 55.841 16.7694 55.4375 16.7694L48.8622 16.7694C48.4587 16.7694 48.1316 17.0965 48.1316 17.5C48.1316 17.9035 48.4587 18.2306 48.8622 18.2306L54.7069 18.2306L54.7069 24.0753C54.7069 24.4788 55.034 24.8059 55.4375 24.8059C55.841 24.8059 56.1681 24.4788 56.1681 24.0753L56.1681 17.5ZM49.2874 24.6833L55.9541 18.0166L54.9209 16.9834L48.2542 23.6501L49.2874 24.6833Z" fill="#FFFFFF"/>
</g>
<circle id="Ellipse 1" cx="106" cy="22" r="3" fill="#FFFFFF"/>
</g>
</svg>
